<?xml version="1.0" encoding="UTF-8" standalone="no"?><!DOCTYPE svg PUBLIC "-//W3C//DTD SVG 1.1//EN" "http://www.w3.org/Graphics/SVG/1.1/DTD/svg11.dtd"><svg width="100%" height="100%" viewBox="0 0 456 89" version="1.1" xmlns="http://www.w3.org/2000/svg" xmlns:xlink="http://www.w3.org/1999/xlink" xml:space="preserve" xmlns:serif="http://www.serif.com/" style="fill-rule:evenodd;clip-rule:evenodd;stroke-linejoin:round;stroke-miterlimit:2;"><g><circle cx="48.674" cy="44.162" r="35.589" style="fill:#fceeed;"/><g><clipPath id="_clip1"><circle cx="48.674" cy="44.162" r="35.589"/></clipPath><g clip-path="url(#_clip1)"><g><path d="M43.797,2.124c5.094,-1.31 10.562,0.592 15.95,2.71c1.416,0.553 1.201,0.322 1.37,1.257c0.411,2.278 -0.452,1.293 -1.122,1.5c-5.916,1.873 -9.555,8.386 -15.122,11.322c-4.199,2.215 -9.042,3.039 -13.741,1.745c-2.375,-0.654 -4.687,-1.66 -7.016,-2.575c-0.771,-0.301 -0.626,-0.224 -0.803,-0.346c-1.338,-0.921 0.157,-2.294 0.161,-2.295c7.356,-2.19 11.086,-10.545 19.696,-13.143c0.208,-0.06 0.417,-0.119 0.627,-0.175Zm0.365,2.538c-6.753,1.917 -11.53,8.866 -17,11.989l-0.048,0.026c7.379,2.922 15.307,2.241 22.012,-3.917c0.937,-0.86 1.841,-1.766 2.756,-2.655c1.498,-1.446 3.051,-2.829 4.819,-3.839l0.049,-0.027c-4.016,-1.59 -8.212,-2.706 -12.305,-1.653c-0.142,0.037 -0.141,0.037 -0.283,0.076Z" style="fill:#d8a4a2;"/><path d="M43.289,7.164c2.226,-0.457 3.003,6.029 -1.344,6.047c-1.724,0.007 -3.52,-2.7 -1.165,-4.56c0.794,-0.628 1.487,-1.244 2.509,-1.487Z" style="fill:#d8a4a2;"/><path d="M47.682,16.098c4.602,-1.192 9.419,0.484 14.754,1.656c0.938,0.206 1.28,1.413 1.263,1.564c-0.016,0.144 -0.054,0.281 -0.112,0.405c-0.068,0.147 -0.162,0.272 -0.278,0.371c-0.611,0.516 -2.454,0.902 -3.802,1.995c-4.149,3.362 -6.912,8.761 -11.794,11.246c-5.14,2.617 -11.165,2.18 -17.113,-0.155c-0.909,-0.36 -1.818,-0.726 -2.729,-1.084c-1.259,-0.491 -1.14,-0.498 -1.344,-1.135c0,0 -0.137,-1.24 1.096,-1.621c5.288,-1.678 8.662,-7.282 13.444,-10.345c2.052,-1.314 4.276,-2.271 6.615,-2.897Zm0.375,2.535c-4.952,1.401 -8.955,5.009 -12.94,8.785c-1.305,1.229 -2.673,2.374 -4.2,3.246l-0.049,0.027c7.398,2.928 15.603,2.429 21.509,-4.276c2.13,-2.418 3.982,-5.215 6.544,-7.005c0,0 -4.508,-1.65 -8.078,-1.311c-0.946,0.09 -1.875,0.284 -2.786,0.534Z" style="fill:#d8a4a2;"/><path d="M47.048,21.191c2.225,-0.456 3.003,6.03 -1.344,6.047c-1.724,0.007 -3.52,-2.7 -1.166,-4.56c0.795,-0.627 1.488,-1.244 2.51,-1.487Z" style="fill:#d8a4a2;"/><path d="M40.038,-11.903c5.163,-1.327 10.717,0.653 15.95,2.71c1.417,0.553 1.202,0.324 1.37,1.257c0.412,2.279 -0.447,1.291 -1.121,1.499c-5.948,1.886 -9.566,8.392 -15.123,11.323c-4.917,2.594 -10.468,2.517 -16.523,1.058c-1.556,-0.37 -3.12,-0.686 -4.69,-0.889c0,0 -0.737,-0.127 -1.008,-0.974c0,0 -0.061,-1.225 1.318,-1.696c6.249,-2.198 9.69,-9.883 16.226,-12.976c1.161,-0.549 2.366,-0.984 3.601,-1.312Zm0.365,2.538c-5.648,1.601 -9.662,6.676 -14.388,11.006c-0.645,0.591 -1.318,1.144 -2.029,1.632c0.291,0.066 0.582,0.135 0.873,0.204c0.77,0.185 1.539,0.379 2.308,0.566c6.275,1.499 12.784,-0.375 18.07,-5.191c2.521,-2.296 4.812,-4.962 7.706,-6.613l0.048,-0.027c-4.014,-1.589 -8.23,-2.701 -12.304,-1.654c-0.095,0.025 -0.189,0.051 -0.284,0.077Z" style="fill:#d8a4a2;"/><path d="M39.53,-6.864c2.226,-0.456 3.003,6.03 -1.343,6.047c-1.724,0.007 -3.52,-2.7 -1.166,-4.56c0.795,-0.627 1.488,-1.243 2.509,-1.487Z" style="fill:#d8a4a2;"/><path d="M11.91,3.137c5.778,-1.457 11.979,0.427 18.093,1.536c1.94,0.351 3.891,0.418 5.771,-0.06c0.586,-0.149 1.443,0.931 1.443,0.931c0.209,0.962 -0.212,1.178 -0.212,1.178c-5.793,7.197 -12.784,13.217 -23.841,11.077c-4.372,-0.846 -8.8,-2.685 -12.94,-1.728c-1.234,0.285 -1.028,0.302 -1.485,-0.438c-1.027,-1.662 -0.208,-1.333 0.21,-1.853c0.189,-0.236 0.377,-0.473 0.565,-0.71c0.483,-0.61 0.964,-1.222 1.447,-1.831c0.177,-0.222 0.353,-0.442 0.531,-0.662c2.827,-3.479 6.183,-6.336 10.418,-7.44Zm0.357,2.538c-3.954,1.103 -7.132,4.182 -9.829,7.585c7.182,-0.123 14.656,4.33 22.512,1.331c3.346,-1.277 5.991,-4.104 8.373,-7.109c-0.424,0.007 -0.847,-0.006 -1.271,-0.036c-6.333,-0.434 -12.589,-3.475 -19.212,-1.917c-0.192,0.046 -0.383,0.095 -0.573,0.146Z" style="fill:#d8a4a2;"/><path d="M18.729,7.938c1.798,-0.415 4.118,0.37 4.298,3.095c0.127,1.94 -2.917,2.44 -5.054,1.373c-1.786,-0.892 -1.106,-4 0.756,-4.468Z" style="fill:#d8a4a2;"/><path d="M15.669,17.164c5.817,-1.467 12.108,0.451 18.093,1.536c1.94,0.352 3.891,0.418 5.771,-0.06c0.586,-0.149 1.443,0.932 1.443,0.932c0.209,0.961 -0.213,1.177 -0.213,1.177c-4.097,5.091 -8.388,10.072 -14.696,11.218c-7.34,1.334 -15.406,-3.464 -22.164,-1.85c-1.547,0.37 -1.234,0.121 -1.542,-0.716c-0.533,-1.442 -0.021,-1.136 0.347,-1.594c0.189,-0.236 0.377,-0.473 0.565,-0.71c0.482,-0.61 0.964,-1.222 1.447,-1.831c2.989,-3.748 6.437,-6.925 10.949,-8.102Zm0.357,2.539c-3.852,1.073 -6.968,3.996 -9.644,7.351c0,0 -1.072,0.121 1.085,0.269c6.939,0.475 13.999,4.06 21.242,1.296c3.345,-1.277 5.99,-4.105 8.372,-7.11c-0.423,0.007 -0.846,-0.006 -1.271,-0.035c-6.334,-0.434 -12.555,-3.481 -19.212,-1.918c-0.191,0.047 -0.382,0.095 -0.572,0.147Z" style="fill:#d8a4a2;"/><path d="M22.487,21.966c1.798,-0.415 4.119,0.37 4.298,3.095c0.128,1.939 -2.917,2.44 -5.053,1.372c-1.786,-0.892 -1.107,-3.999 0.755,-4.467Z" style="fill:#d8a4a2;"/><path d="M55.924,-8.657c5.817,-1.467 12.108,0.451 18.093,1.536c1.94,0.352 3.891,0.418 5.771,-0.06c0.586,-0.149 1.443,0.932 1.443,0.932c0.209,0.961 -0.212,1.177 -0.212,1.177c-5.794,7.2 -12.785,13.218 -23.842,11.078c-4.362,-0.844 -8.703,-2.708 -12.94,-1.728c-1.233,0.285 -1.027,0.302 -1.484,-0.438c-1.027,-1.663 -0.208,-1.333 0.21,-1.854c0.189,-0.236 0.377,-0.472 0.565,-0.709c0.483,-0.611 0.964,-1.222 1.447,-1.832c0.176,-0.221 0.353,-0.442 0.531,-0.662c2.827,-3.479 6.182,-6.335 10.418,-7.44Zm0.357,2.539c-3.955,1.102 -7.132,4.182 -9.829,7.585c6.316,-0.109 12.566,3.422 19.357,2.188c4.604,-0.837 8.418,-4.044 11.527,-7.967c-0.423,0.007 -0.846,-0.006 -1.27,-0.035c-6.333,-0.434 -12.589,-3.476 -19.212,-1.918c-0.192,0.047 -0.383,0.096 -0.573,0.147Z" style="fill:#d8a4a2;"/><path d="M62.742,-3.855c1.799,-0.415 4.119,0.37 4.299,3.095c0.127,1.939 -2.917,2.44 -5.054,1.372c-1.786,-0.891 -1.107,-3.999 0.755,-4.467Z" style="fill:#d8a4a2;"/><path d="M59.683,5.371c5.817,-1.467 12.108,0.45 18.093,1.535c1.94,0.352 3.891,0.418 5.771,-0.059c0.585,-0.149 1.443,0.931 1.443,0.931c0.209,0.962 -0.213,1.178 -0.213,1.178c-4.09,5.083 -8.389,10.071 -14.696,11.217c-7.126,1.295 -14.969,-3.208 -21.613,-1.966c-0.185,0.034 -0.368,0.073 -0.551,0.117c-1.554,0.371 -1.234,0.12 -1.542,-0.716c-0.533,-1.443 -0.021,-1.137 0.346,-1.594c0.19,-0.236 0.378,-0.473 0.566,-0.71c0.482,-0.611 0.964,-1.222 1.447,-1.832c2.988,-3.748 6.437,-6.925 10.949,-8.101Zm0.356,2.538c-3.954,1.103 -7.131,4.182 -9.829,7.585c0.424,-0.007 0.847,0.006 1.271,0.035c6.917,0.474 13.944,4.006 21.116,1.344c3.318,-1.232 5.957,-3.97 8.313,-6.924c0,0 1.072,-0.121 -1.086,-0.269c-6.331,-0.434 -12.522,-3.488 -19.212,-1.918c-0.191,0.047 -0.382,0.096 -0.573,0.147Z" style="fill:#d8a4a2;"/><path d="M66.501,10.172c1.798,-0.415 4.119,0.37 4.298,3.095c0.128,1.94 -2.917,2.44 -5.054,1.373c-1.785,-0.892 -1.106,-4 0.756,-4.468Z" style="fill:#d8a4a2;"/><path d="M7.176,41.403c5.153,-1.323 10.717,0.652 15.95,2.71c1.415,0.553 1.201,0.322 1.37,1.257c0.411,2.278 -0.453,1.293 -1.122,1.5c-5.924,1.88 -9.519,8.368 -15.122,11.322c-4.274,2.254 -9.223,3.043 -13.999,1.672c-2.48,-0.711 -4.888,-1.778 -7.329,-2.724l-0.773,-0.914c-0.175,-0.811 0.665,-1.494 0.702,-1.505c6.403,-1.9 10.059,-8.852 16.321,-11.842c1.289,-0.616 2.625,-1.11 4.002,-1.476Zm0.365,2.538c-4.619,1.311 -8.471,4.545 -12.181,8.15c-1.5,1.448 -3.06,2.834 -4.819,3.839l-0.049,0.026c7.758,3.071 15.852,2.013 23.035,-4.881c2.076,-2.01 4.095,-4.126 6.553,-5.53l0.049,-0.027c-4.017,-1.59 -8.212,-2.704 -12.305,-1.654c-0.094,0.026 -0.189,0.051 -0.283,0.077Z" style="fill:#d8a4a2;"/><path d="M6.668,46.443c2.226,-0.457 3.003,6.029 -1.344,6.047c-1.724,0.007 -3.52,-2.7 -1.165,-4.56c0.794,-0.628 1.487,-1.244 2.509,-1.487Z" style="fill:#d8a4a2;"/><path d="M11.061,55.377c4.604,-1.193 9.419,0.484 14.753,1.656c0.938,0.206 1.281,1.414 1.264,1.564c-0.016,0.143 -0.054,0.28 -0.111,0.404c-0.069,0.148 -0.163,0.274 -0.28,0.372c-0.6,0.506 -2.45,0.899 -3.801,1.995c-4.118,3.337 -6.848,8.689 -11.692,11.194c-5.179,2.678 -11.241,2.243 -17.215,-0.103c-0.91,-0.36 -1.818,-0.726 -2.729,-1.084c-1.263,-0.493 -1.142,-0.501 -1.344,-1.135c0,0 -0.028,-1.274 1.096,-1.622c7.11,-2.255 10.787,-10.492 19.451,-13.071c0.202,-0.059 0.405,-0.116 0.608,-0.17Zm0.375,2.535c-4.664,1.317 -8.538,4.516 -12.321,8.192c-1.498,1.446 -3.047,2.828 -4.819,3.839l-0.049,0.027c7.381,2.922 15.603,2.429 21.509,-4.276c2.13,-2.418 3.984,-5.212 6.544,-7.005c0,0 -4.508,-1.65 -8.078,-1.311c-0.946,0.09 -1.871,0.282 -2.786,0.534Z" style="fill:#d8a4a2;"/><path d="M10.427,60.47c2.225,-0.456 3.002,6.03 -1.344,6.047c-1.724,0.007 -3.52,-2.7 -1.166,-4.56c0.795,-0.627 1.488,-1.244 2.51,-1.487Z" style="fill:#d8a4a2;"/><path d="M3.418,27.376c5.127,-1.316 10.593,0.605 15.949,2.71c1.413,0.551 1.201,0.322 1.37,1.257c0.412,2.278 -0.447,1.291 -1.121,1.499c-5.935,1.882 -9.515,8.365 -15.123,11.323c-4.903,2.586 -10.348,2.548 -16.523,1.058c-1.56,-0.371 -3.123,-0.686 -4.69,-0.889c0,0 -0.737,-0.127 -1.008,-0.974c0,0 -0.063,-1.225 1.318,-1.697c6.265,-2.197 9.69,-9.882 16.226,-12.975c1.16,-0.549 2.36,-0.982 3.602,-1.312Zm0.364,2.538c-6.526,1.853 -10.806,8.78 -16.417,12.638c0.291,0.066 0.582,0.135 0.873,0.204c0.77,0.186 1.538,0.379 2.308,0.566c0.241,0.057 0.481,0.114 0.722,0.169c6.135,1.377 12.38,-0.836 17.348,-5.36c2.517,-2.292 4.784,-4.945 7.706,-6.613l0.048,-0.027c-4.014,-1.589 -8.211,-2.704 -12.305,-1.654c-0.094,0.025 -0.188,0.051 -0.283,0.077Z" style="fill:#d8a4a2;"/><path d="M2.909,32.415c2.226,-0.456 3.003,6.03 -1.343,6.047c-1.724,0.007 -3.521,-2.7 -1.166,-4.56c0.795,-0.627 1.488,-1.244 2.509,-1.487Z" style="fill:#d8a4a2;"/><path d="M19.303,30.622c5.801,-1.463 12.023,0.436 18.093,1.536c1.94,0.352 3.891,0.418 5.771,-0.06c0.582,-0.148 1.443,0.932 1.443,0.932c0.203,0.93 -0.124,1.063 -0.785,1.892c-5.603,7.059 -12.869,12.433 -23.455,10.326c-0.778,-0.155 -1.554,-0.338 -2.329,-0.528c-3.495,-0.877 -7.055,-1.944 -10.424,-1.163c-1.244,0.288 -1.013,0.341 -1.518,-0.493c-0.949,-1.568 0.041,-1.541 0.808,-2.509c0.483,-0.61 0.964,-1.221 1.447,-1.831c0.176,-0.221 0.353,-0.442 0.531,-0.662c2.824,-3.476 6.184,-6.334 10.418,-7.44Zm0.357,2.539c-3.955,1.104 -7.132,4.181 -9.83,7.585c0.424,-0.008 0.847,0.006 1.271,0.035c6.929,0.473 13.992,4.061 21.242,1.296c3.345,-1.276 5.99,-4.105 8.372,-7.11c-0.365,0.006 -0.731,-0.003 -1.098,-0.024c-6.353,-0.368 -12.639,-3.512 -19.385,-1.929c-0.191,0.047 -0.382,0.096 -0.572,0.147Z" style="fill:#d8a4a2;"/><path d="M26.121,35.424c1.798,-0.415 4.119,0.37 4.298,3.095c0.128,1.939 -2.917,2.44 -5.053,1.372c-1.786,-0.892 -1.107,-3.999 0.755,-4.467Z" style="fill:#d8a4a2;"/><path d="M23.062,44.65c5.801,-1.463 12.022,0.435 18.093,1.535c1.939,0.352 3.89,0.419 5.77,-0.059c0.582,-0.148 1.444,0.931 1.444,0.931c0.202,0.931 -0.125,1.063 -0.785,1.893c-5.608,7.064 -12.869,12.432 -23.455,10.326c-0.779,-0.155 -1.554,-0.338 -2.329,-0.529c-3.495,-0.876 -7.056,-1.943 -10.425,-1.163c-1.252,0.29 -1.024,0.322 -1.517,-0.492c-0.913,-1.507 -0.132,-1.333 0.242,-1.8c0.19,-0.235 0.378,-0.472 0.566,-0.709c0.482,-0.611 0.963,-1.222 1.447,-1.832c0.176,-0.221 0.353,-0.442 0.53,-0.662c2.831,-3.483 6.185,-6.333 10.419,-7.439Zm0.356,2.538c-3.954,1.105 -7.132,4.182 -9.829,7.585c0.365,-0.006 0.731,0.003 1.098,0.024c7.033,0.406 14.223,4.126 21.539,1.259c3.302,-1.293 5.899,-4.098 8.248,-7.062c-0.365,0.007 -0.732,-0.003 -1.098,-0.024c-6.353,-0.368 -12.639,-3.512 -19.385,-1.929c-0.192,0.047 -0.382,0.096 -0.573,0.147Z" style="fill:#d8a4a2;"/><path d="M29.88,49.451c1.798,-0.415 4.118,0.37 4.298,3.095c0.128,1.94 -2.917,2.44 -5.054,1.373c-1.785,-0.892 -1.106,-4 0.756,-4.468Z" style="fill:#d8a4a2;"/><path d="M104.634,45.227c5.162,-1.327 10.717,0.652 15.95,2.71c1.653,0.645 1.31,0.27 1.395,1.465c0.12,1.7 -0.448,1.075 -1.146,1.291c-5.934,1.882 -9.566,8.393 -15.123,11.323c-6.131,3.233 -13.214,1.204 -21.212,0.169c0,0 -0.738,-0.127 -1.009,-0.974c0,0 -0.062,-1.225 1.318,-1.696c5.034,-1.771 8.059,-7.4 12.606,-10.789c2.187,-1.63 4.628,-2.811 7.221,-3.499Zm0.365,2.538c-6.434,1.824 -10.574,8.62 -16.417,12.638c3.015,0.677 6.036,1.662 8.986,1.473c5.921,-0.38 10.958,-4.593 15.151,-8.668c1.501,-1.448 3.06,-2.835 4.82,-3.839l0.048,-0.027c-4.024,-1.593 -8.251,-2.696 -12.305,-1.654c-0.142,0.038 -0.141,0.038 -0.283,0.077Z" style="fill:#d8a4a2;"/><path d="M104.126,50.266c2.226,-0.456 3.003,6.03 -1.343,6.047c-1.724,0.007 -3.521,-2.7 -1.166,-4.56c0.795,-0.627 1.487,-1.243 2.509,-1.487Z" style="fill:#d8a4a2;"/><path d="M76.506,60.267c5.817,-1.467 12.108,0.451 18.093,1.536c1.94,0.351 3.891,0.418 5.771,-0.06c0.586,-0.149 1.443,0.931 1.443,0.931c0.209,0.962 -0.212,1.178 -0.212,1.178c-4.098,5.091 -8.389,10.071 -14.697,11.218c-7.125,1.294 -14.97,-3.209 -21.613,-1.967c-0.184,0.034 -0.368,0.073 -0.551,0.117c-1.554,0.371 -1.233,0.12 -1.542,-0.716c-0.533,-1.443 -0.021,-1.137 0.347,-1.594c0.189,-0.236 0.377,-0.473 0.565,-0.71c0.483,-0.61 0.964,-1.222 1.447,-1.832c0.176,-0.221 0.353,-0.441 0.531,-0.661c2.827,-3.479 6.182,-6.336 10.418,-7.44Zm0.357,2.538c-3.854,1.075 -6.993,4.026 -9.644,7.351c0,0 -0.566,0.219 0.393,0.237c7.094,0.215 14.425,4.194 21.934,1.328c3.349,-1.278 5.993,-4.107 8.372,-7.109c-0.423,0.007 -0.846,-0.007 -1.27,-0.036c-6.335,-0.434 -12.556,-3.48 -19.212,-1.918c-0.192,0.047 -0.383,0.096 -0.573,0.147Z" style="fill:#d8a4a2;"/><path d="M83.324,65.068c1.798,-0.415 4.119,0.37 4.298,3.095c0.128,1.94 -2.916,2.44 -5.053,1.373c-1.786,-0.892 -1.107,-4 0.755,-4.468Z" style="fill:#d8a4a2;"/><path d="M80.265,74.294c5.915,-1.489 12.326,0.574 18.402,1.59c1.839,0.307 3.707,0.332 5.462,-0.114c0.585,-0.149 1.443,0.932 1.443,0.932c0.209,0.961 -0.213,1.177 -0.213,1.177c-5.388,6.696 -11.756,12.463 -21.324,11.459c-5.285,-0.555 -10.608,-3.268 -15.536,-2.091c-1.554,0.371 -1.234,0.121 -1.542,-0.716c-0.533,-1.442 -0.021,-1.136 0.346,-1.594c0.19,-0.236 0.378,-0.473 0.566,-0.71c0.482,-0.61 0.963,-1.222 1.447,-1.831c2.983,-3.742 6.437,-6.923 10.949,-8.102Zm0.356,2.539c-3.853,1.074 -6.993,4.026 -9.644,7.351c0,0 -1.072,0.121 1.086,0.269c6.956,0.476 14.047,4.042 21.241,1.296c3.35,-1.279 5.993,-4.107 8.373,-7.11c-0.424,0.007 -0.846,-0.006 -1.271,-0.035c-6.334,-0.434 -12.555,-3.481 -19.212,-1.918c-0.191,0.047 -0.382,0.095 -0.573,0.147Z" style="fill:#d8a4a2;"/><path d="M87.083,79.096c1.798,-0.416 4.118,0.37 4.298,3.095c0.128,1.939 -2.917,2.44 -5.054,1.372c-1.785,-0.892 -1.106,-3.999 0.756,-4.467Z" style="fill:#d8a4a2;"/><path d="M68.785,32.311c5.935,-1.497 12.403,0.586 18.403,1.59c1.838,0.307 3.706,0.332 5.461,-0.114c0.586,-0.149 1.443,0.932 1.443,0.932c0.209,0.961 -0.213,1.177 -0.213,1.177c-5.374,6.679 -11.756,12.463 -21.324,11.458c-5.291,-0.555 -10.607,-3.267 -15.536,-2.09c-1.547,0.37 -1.234,0.12 -1.542,-0.716c-0.533,-1.443 -0.025,-1.131 0.347,-1.594c0.189,-0.236 0.377,-0.473 0.565,-0.71c0.482,-0.61 0.964,-1.222 1.447,-1.831c2.985,-3.744 6.439,-6.924 10.949,-8.102Zm0.357,2.539c-3.856,1.076 -6.974,4.002 -9.644,7.351c0,0 -1.072,0.121 1.085,0.268c6.964,0.477 14.046,4.041 21.242,1.297c3.349,-1.278 5.993,-4.108 8.372,-7.11c-0.365,0.006 -0.731,-0.003 -1.098,-0.024c-6.356,-0.369 -12.639,-3.513 -19.385,-1.929c-0.191,0.046 -0.382,0.095 -0.572,0.147Z" style="fill:#d8a4a2;"/><path d="M71.533,36.476c1.631,-0.386 3.846,-0.195 4.639,0.854c1.424,1.883 -0.507,4.753 -3.266,4.055c-2.063,-0.522 -3.393,-4.371 -1.373,-4.909Z" style="fill:#d8a4a2;"/><path d="M72.397,46.358c5.013,-1.269 10.327,-0.421 15.696,0.936c2.8,0.696 5.681,1.185 8.388,0.487c0,0 1.059,-0.01 1.366,0.951c0,0 0.05,0.843 -0.785,1.892c-5.555,6.999 -13.006,12.838 -23.056,9.911c-4.344,-1.265 -8.662,-3.863 -12.81,-2.894c-0.873,0.204 -1.567,-0.771 -1.606,-0.934c-0.034,-0.144 -0.047,-0.292 -0.038,-0.436c0.011,-0.171 0.052,-0.332 0.121,-0.478c0.171,-0.359 0.443,-0.516 0.689,-0.743c3.615,-3.367 6.781,-7.204 11.584,-8.571c0.15,-0.041 0.3,-0.082 0.451,-0.121Zm0.364,2.537c-3.323,0.92 -6.081,3.277 -8.568,5.832c0,0 -0.6,0.135 0.43,0.265c4.426,0.615 8.636,3.291 13.135,3.796c4.82,0.54 9.626,-1.043 13.103,-4.529c1.105,-1.108 2.104,-2.345 3.091,-3.59c-0.365,0.007 -0.731,-0.003 -1.098,-0.024c-6.502,-0.375 -12.871,-3.582 -19.816,-1.824c-0.093,0.024 -0.185,0.049 -0.277,0.074Z" style="fill:#d8a4a2;"/><path d="M75.292,50.503c1.63,-0.386 3.845,-0.194 4.638,0.854c1.425,1.884 -0.507,4.754 -3.265,4.056c-2.064,-0.523 -3.393,-4.371 -1.373,-4.91Z" style="fill:#d8a4a2;"/><path d="M65.026,18.284c5.391,-1.359 11.107,0.141 16.868,1.815c2.582,0.739 5.254,1.23 7.764,0.585c0,0 1.034,-0.068 1.36,0.952c0,0 0.043,1.004 -0.905,1.75c-4.639,3.68 -8.352,8.514 -14.567,9.678c-7.608,1.425 -16.357,-3.334 -22.444,-1.788c-4.082,1.037 -1.526,-1.683 -1.28,-2.039c0.139,-0.201 0.163,-0.211 0.243,-0.31c0.189,-0.236 0.377,-0.473 0.565,-0.71c0.483,-0.611 0.964,-1.222 1.447,-1.832c2.986,-3.744 6.44,-6.924 10.949,-8.101Zm0.357,2.538c-3.954,1.105 -7.132,4.182 -9.829,7.585c0.365,-0.006 0.731,0.003 1.098,0.024c7.987,0.461 16.507,5.744 24.857,-0.657c1.651,-1.266 3.11,-2.817 4.662,-4.261c0,0 -5.289,-1.21 -8.675,-2.189c-4.058,-1.16 -8.272,-1.538 -12.113,-0.502Z" style="fill:#d8a4a2;"/><path d="M67.774,22.449c1.631,-0.387 3.846,-0.195 4.639,0.853c1.425,1.884 -0.507,4.754 -3.265,4.056c-2.064,-0.523 -3.394,-4.371 -1.374,-4.909Z" style="fill:#d8a4a2;"/><path d="M96.906,17.243c5.396,-1.388 11.485,0.546 16.597,2.967c3.606,1.708 0.433,2.224 0.07,2.358c-0.19,0.07 0.038,-0.015 -0.469,0.142c-5.928,1.876 -9.519,8.368 -15.122,11.322c-4.24,2.236 -9.137,3.041 -13.871,1.709c-2.427,-0.683 -4.804,-1.73 -7.17,-2.65c-1.706,-0.664 -1.206,-2.282 -0.357,-2.529c0.014,-0.004 1.908,-0.561 3.509,-1.638c5.362,-3.605 9.379,-9.452 16.185,-11.506c0.209,-0.061 0.418,-0.119 0.628,-0.175Zm0.365,2.538c-6.753,1.92 -11.531,8.866 -17.001,11.989l-0.048,0.026c7.374,2.92 15.308,2.241 22.013,-3.917c0.937,-0.86 1.841,-1.766 2.756,-2.655c1.498,-1.446 3.051,-2.829 4.819,-3.839l0.048,-0.027c-4.016,-1.59 -8.212,-2.706 -12.304,-1.654c-0.142,0.038 -0.142,0.038 -0.283,0.077Z" style="fill:#d8a4a2;"/><path d="M93.223,24.858c1.931,-0.465 4.01,2.344 2.358,4.004c-1.139,1.145 -2.743,2.269 -3.693,1.928c-2.249,-0.808 -1.836,-4.966 1.201,-5.895c0.067,-0.019 0.067,-0.019 0.134,-0.037Z" style="fill:#d8a4a2;"/><path d="M100.664,31.271c5.176,-1.329 10.717,0.652 15.95,2.709c1.417,0.553 1.202,0.325 1.37,1.258c0.411,2.278 -0.452,1.292 -1.121,1.499c-5.928,1.877 -9.52,8.368 -15.123,11.323c-4.238,2.235 -9.136,3.04 -13.87,1.708c-2.427,-0.683 -4.804,-1.729 -7.17,-2.65c-1.707,-0.663 -1.206,-2.282 -0.357,-2.529c0.014,-0.004 2.003,-0.601 3.635,-1.723c4.379,-3.01 7.688,-7.734 12.684,-10.12c1.289,-0.616 2.626,-1.109 4.002,-1.475Zm0.365,2.537c-6.752,1.917 -11.529,8.866 -17,11.989l-0.048,0.027c7.36,2.914 15.308,2.241 22.013,-3.918c0.936,-0.86 1.84,-1.765 2.755,-2.655c1.496,-1.443 3.051,-2.829 4.82,-3.838l0.048,-0.027c-4.016,-1.59 -8.212,-2.705 -12.305,-1.654c-0.094,0.025 -0.188,0.05 -0.283,0.076Z" style="fill:#d8a4a2;"/><path d="M96.982,38.886c1.931,-0.466 4.009,2.343 2.358,4.003c-1.139,1.145 -2.743,2.27 -3.694,1.928c-2.248,-0.808 -1.836,-4.966 1.202,-5.895c0.067,-0.019 0.066,-0.019 0.134,-0.036Z" style="fill:#d8a4a2;"/><path d="M52.892,29.037c5.094,-1.311 10.562,0.591 15.95,2.71c1.415,0.552 1.201,0.322 1.37,1.257c0.411,2.278 -0.453,1.292 -1.122,1.499c-5.947,1.883 -9.555,8.387 -15.122,11.323c-4.2,2.214 -9.042,3.039 -13.741,1.744c-2.472,-0.681 -4.873,-1.742 -7.3,-2.686c-1.706,-0.663 -1.205,-2.282 -0.357,-2.529c0.014,-0.004 1.909,-0.56 3.509,-1.637c5.362,-3.606 9.379,-9.453 16.185,-11.506c0.209,-0.061 0.418,-0.12 0.628,-0.175Zm0.365,2.537c-6.753,1.92 -11.531,8.867 -17,11.989l-0.049,0.027c7.379,2.921 15.308,2.241 22.013,-3.918c0.937,-0.86 1.841,-1.765 2.756,-2.655c1.498,-1.445 3.051,-2.829 4.819,-3.838l0.049,-0.027c-4.017,-1.59 -8.213,-2.707 -12.305,-1.654c-0.142,0.038 -0.142,0.038 -0.283,0.076Z" style="fill:#d8a4a2;"/><path d="M49.209,36.652c1.931,-0.466 4.01,2.343 2.358,4.003c-1.139,1.145 -2.743,2.27 -3.693,1.928c-2.249,-0.808 -1.836,-4.966 1.201,-5.895c0.067,-0.019 0.067,-0.019 0.134,-0.036Z" style="fill:#d8a4a2;"/><path d="M56.651,43.064c5.126,-1.316 10.593,0.604 15.949,2.71c1.416,0.553 1.202,0.322 1.37,1.257c0.412,2.278 -0.452,1.293 -1.121,1.5c-5.918,1.873 -9.555,8.386 -15.123,11.322c-4.198,2.214 -9.041,3.04 -13.74,1.745c-2.472,-0.681 -4.873,-1.742 -7.3,-2.686c-1.707,-0.664 -1.206,-2.282 -0.357,-2.529c0.014,-0.005 2.003,-0.601 3.636,-1.724c4.378,-3.009 7.687,-7.733 12.683,-10.12c1.289,-0.615 2.626,-1.109 4.003,-1.475Zm0.364,2.538c-6.752,1.916 -11.529,8.865 -17,11.989l-0.048,0.026c7.375,2.92 15.308,2.241 22.013,-3.917c0.936,-0.86 1.84,-1.766 2.755,-2.655c1.499,-1.446 3.051,-2.83 4.82,-3.839l0.048,-0.027c-4.016,-1.59 -8.211,-2.704 -12.304,-1.654c-0.095,0.025 -0.189,0.051 -0.284,0.077Z" style="fill:#d8a4a2;"/><path d="M52.968,50.679c1.931,-0.465 4.01,2.343 2.358,4.004c-1.139,1.145 -2.743,2.269 -3.693,1.928c-2.249,-0.808 -1.837,-4.966 1.201,-5.895c0.067,-0.019 0.067,-0.019 0.134,-0.037Z" style="fill:#d8a4a2;"/><path d="M32.164,71.59c5.993,-1.512 12.504,0.698 18.711,1.639c1.738,0.263 3.514,0.254 5.153,-0.163c0.581,-0.148 1.443,0.932 1.443,0.932c0.202,0.93 -0.124,1.063 -0.785,1.892c-5.97,7.524 -13.675,12.779 -25.784,9.797c-3.482,-0.872 -6.99,-1.957 -10.425,-1.163c-1.234,0.286 -1.011,0.329 -1.485,-0.438c-1.025,-1.659 -0.212,-1.326 0.211,-1.853c0.189,-0.236 0.377,-0.473 0.565,-0.71c0.482,-0.61 0.964,-1.222 1.447,-1.831c0.176,-0.222 0.353,-0.442 0.531,-0.662c2.827,-3.48 6.186,-6.335 10.418,-7.44Zm0.357,2.539c-3.954,1.104 -7.132,4.181 -9.83,7.584c0.366,-0.006 0.732,0.003 1.099,0.025c7.03,0.407 14.222,4.125 21.538,1.258c3.3,-1.292 5.899,-4.098 8.248,-7.061c-0.365,0.006 -0.731,-0.003 -1.098,-0.025c-6.352,-0.368 -12.639,-3.512 -19.385,-1.928c-0.191,0.046 -0.382,0.095 -0.572,0.147Z" style="fill:#d8a4a2;"/><path d="M34.912,75.755c1.631,-0.386 3.846,-0.195 4.639,0.853c1.424,1.884 -0.508,4.754 -3.266,4.056c-2.063,-0.522 -3.393,-4.371 -1.373,-4.909Z" style="fill:#d8a4a2;"/><path d="M35.776,85.637c5.012,-1.271 10.326,-0.421 15.695,0.936c2.799,0.696 5.672,1.186 8.395,0.485c0,0 1.053,-0.008 1.36,0.953c0,0 0.05,0.843 -0.785,1.892c-5.552,6.995 -13.006,12.839 -23.057,9.911c-4.343,-1.266 -8.664,-3.864 -12.809,-2.894c-0.862,0.202 -1.568,-0.774 -1.606,-0.934c-0.034,-0.144 -0.047,-0.291 -0.038,-0.436c0.011,-0.171 0.052,-0.333 0.122,-0.479c0.171,-0.359 0.442,-0.515 0.688,-0.742c3.579,-3.334 6.722,-7.148 11.436,-8.529c0.199,-0.056 0.399,-0.111 0.599,-0.163Zm0.364,2.537c-3.317,0.918 -6.058,3.254 -8.568,5.832c0,0 -0.6,0.135 0.43,0.265c4.419,0.614 8.612,3.287 13.136,3.796c4.737,0.532 9.464,-0.962 12.928,-4.357c1.174,-1.15 2.227,-2.452 3.265,-3.762c-0.365,0.006 -0.731,-0.003 -1.098,-0.024c-6.491,-0.376 -12.873,-3.585 -19.816,-1.824c-0.093,0.024 -0.185,0.049 -0.277,0.074Z" style="fill:#d8a4a2;"/><path d="M38.67,89.782c1.631,-0.386 3.846,-0.195 4.639,0.854c1.425,1.884 -0.507,4.754 -3.265,4.056c-2.064,-0.523 -3.393,-4.371 -1.374,-4.91Z" style="fill:#d8a4a2;"/><path d="M28.405,57.563c5.402,-1.362 11.106,0.144 16.868,1.815c2.585,0.741 5.254,1.23 7.764,0.585c0,0 1.031,-0.077 1.36,0.953c0,0 0.043,1.004 -0.905,1.749c-4.618,3.663 -8.235,8.492 -14.567,9.678c-7.599,1.423 -16.366,-3.332 -22.444,-1.788c-4.088,1.038 -1.527,-1.682 -1.28,-2.039c0.139,-0.201 0.163,-0.211 0.243,-0.311c0.189,-0.235 0.377,-0.472 0.565,-0.709c0.483,-0.611 0.964,-1.222 1.447,-1.832c2.989,-3.748 6.438,-6.923 10.949,-8.101Zm0.357,2.538c-3.954,1.105 -7.132,4.182 -9.829,7.585c0.365,-0.006 0.731,0.003 1.098,0.024c7.95,0.461 16.2,5.98 24.857,-0.657c1.651,-1.266 3.11,-2.817 4.662,-4.261c0,0 -5.095,-1.143 -8.497,-2.137c-4.11,-1.189 -8.343,-1.619 -12.291,-0.554Z" style="fill:#d8a4a2;"/><path d="M31.153,61.728c1.631,-0.387 3.846,-0.195 4.639,0.853c1.425,1.884 -0.507,4.754 -3.265,4.056c-2.064,-0.523 -3.394,-4.371 -1.374,-4.909Z" style="fill:#d8a4a2;"/><path d="M60.285,56.522c5.135,-1.318 10.656,0.628 15.95,2.71c1.415,0.553 1.205,0.343 1.37,1.258c0.409,2.269 -0.458,1.294 -1.122,1.499c-5.981,1.898 -9.581,8.469 -15.32,11.425c-4.234,2.181 -9.096,2.919 -13.802,1.569c-2.479,-0.711 -4.887,-1.778 -7.328,-2.724c0,0 -0.774,-0.914 -0.774,-0.914c-0.174,-0.811 0.665,-1.494 0.702,-1.505c6.403,-1.9 10.059,-8.852 16.322,-11.843c1.288,-0.615 2.625,-1.109 4.002,-1.475Zm0.365,2.538c-6.734,1.911 -11.529,8.866 -17.001,11.989l-0.048,0.026c7.744,3.067 15.852,2.013 23.035,-4.881c2.074,-2.009 4.086,-4.12 6.553,-5.53l0.048,-0.027c-4.016,-1.59 -8.211,-2.704 -12.304,-1.654c-0.095,0.026 -0.189,0.051 -0.283,0.077Z" style="fill:#d8a4a2;"/><path d="M56.602,64.137c1.931,-0.465 4.01,2.344 2.358,4.004c-1.139,1.145 -2.743,2.269 -3.693,1.928c-2.249,-0.808 -1.837,-4.966 1.201,-5.895c0.067,-0.019 0.067,-0.019 0.134,-0.037Z" style="fill:#d8a4a2;"/><path d="M64.043,70.549c5.152,-1.322 10.656,0.63 15.95,2.71c1.64,0.641 1.31,0.273 1.395,1.465c0.121,1.712 -0.454,1.078 -1.146,1.292c-5.985,1.9 -9.581,8.47 -15.32,11.425c-4.235,2.181 -9.096,2.919 -13.802,1.57c-2.48,-0.712 -4.888,-1.78 -7.329,-2.725c0,0 -0.773,-0.914 -0.773,-0.914c-0.175,-0.811 0.665,-1.494 0.702,-1.505c6.461,-1.917 10.101,-8.871 16.321,-11.842c1.289,-0.616 2.625,-1.109 4.002,-1.476Zm0.365,2.538c-6.68,1.896 -11.4,8.79 -17,11.989l-0.048,0.027c7.739,3.064 15.852,2.014 23.035,-4.882c2.079,-2.013 4.109,-4.135 6.553,-5.53l0.048,-0.026c-4.024,-1.593 -8.251,-2.695 -12.305,-1.654c-0.094,0.025 -0.189,0.05 -0.283,0.076Z" style="fill:#d8a4a2;"/><path d="M60.361,78.165c1.931,-0.466 4.009,2.343 2.358,4.003c-1.139,1.145 -2.743,2.27 -3.694,1.928c-2.248,-0.808 -1.836,-4.966 1.202,-5.895c0.067,-0.019 0.066,-0.019 0.134,-0.036Z" style="fill:#d8a4a2;"/><path d="M16.271,68.316c5.135,-1.319 10.656,0.629 15.95,2.709c1.415,0.553 1.205,0.344 1.37,1.258c0.409,2.27 -0.457,1.294 -1.122,1.499c-5.981,1.899 -9.581,8.47 -15.32,11.425c-4.234,2.181 -9.096,2.919 -13.802,1.57c-2.479,-0.712 -4.887,-1.779 -7.328,-2.725c0,0 -0.774,-0.914 -0.774,-0.914c-0.174,-0.811 0.666,-1.494 0.702,-1.505c6.403,-1.9 10.06,-8.851 16.322,-11.842c1.288,-0.616 2.625,-1.109 4.002,-1.475Zm0.365,2.537c-6.734,1.911 -11.53,8.866 -17.001,11.989l-0.048,0.027c7.739,3.064 15.852,2.013 23.035,-4.882c2.074,-2.008 4.086,-4.12 6.553,-5.529l0.048,-0.027c-4.016,-1.59 -8.211,-2.705 -12.304,-1.654c-0.095,0.025 -0.189,0.051 -0.283,0.076Z" style="fill:#d8a4a2;"/><path d="M12.588,75.931c1.931,-0.466 4.01,2.343 2.358,4.003c-1.139,1.145 -2.743,2.27 -3.693,1.928c-2.249,-0.808 -1.836,-4.966 1.201,-5.895c0.067,-0.019 0.067,-0.019 0.134,-0.036Z" style="fill:#d8a4a2;"/><path d="M20.029,82.343c5.152,-1.323 10.656,0.63 15.95,2.71c1.641,0.641 1.31,0.272 1.395,1.465c0.121,1.712 -0.454,1.077 -1.146,1.292c-5.985,1.899 -9.581,8.469 -15.32,11.425c-4.235,2.18 -9.096,2.919 -13.802,1.569c-2.479,-0.711 -4.888,-1.779 -7.328,-2.725c0,0 -0.774,-0.913 -0.774,-0.913c-0.174,-0.812 0.665,-1.495 0.702,-1.506c6.406,-1.9 10.059,-8.85 16.321,-11.842c1.289,-0.615 2.626,-1.109 4.002,-1.475Zm0.365,2.538c-6.679,1.895 -11.401,8.789 -17,11.988l-0.048,0.027c7.739,3.065 15.853,2.014 23.035,-4.882c2.079,-2.012 4.11,-4.134 6.553,-5.529l0.048,-0.027c-4.024,-1.593 -8.25,-2.695 -12.305,-1.654c-0.094,0.025 -0.188,0.051 -0.283,0.077Z" style="fill:#d8a4a2;"/><path d="M16.347,89.958c1.931,-0.465 4.009,2.343 2.358,4.004c-1.139,1.144 -2.743,2.269 -3.694,1.928c-2.248,-0.808 -1.836,-4.967 1.202,-5.895c0.067,-0.019 0.066,-0.019 0.134,-0.037Z" style="fill:#d8a4a2;"/></g></g></g><path d="M81.379,63.309c-7.099,12.027 -21.176,19.543 -35.113,18.677c-11.472,-0.713 -22.458,-6.969 -28.929,-16.468c-9.18,-13.478 -8.545,-32.937 2.35,-45.855c7.702,-9.134 19.919,-14.232 31.829,-13.345c11.547,0.86 22.522,7.341 28.852,17.011c7.592,11.596 8.192,27.27 1.256,39.556c-0.081,0.141 -0.162,0.283 -0.245,0.424Zm-1.783,-1.578c6.322,-11.195 5.99,-25.736 -0.831,-36.58c-5.845,-9.294 -16.225,-15.604 -27.207,-16.489c-15.478,-1.248 -31.244,8.592 -36.533,23.83c-3.651,10.52 -1.962,22.725 4.363,31.89c6.243,9.047 16.902,14.902 27.883,15.318c12.772,0.484 25.503,-6.4 32.095,-17.571c0.077,-0.132 0.154,-0.265 0.23,-0.398Z" style="fill:#58636b;"/></g><g><path d="M99.584,65.603c-0.204,0 -0.378,-0.071 -0.521,-0.214c-0.143,-0.143 -0.215,-0.317 -0.215,-0.522l0,-41.462c0,-0.205 0.072,-0.379 0.215,-0.522c0.143,-0.143 0.317,-0.214 0.521,-0.214l5.643,0c0.204,0 0.378,0.071 0.521,0.214c0.144,0.143 0.215,0.317 0.215,0.522l0,41.462c0,0.205 -0.071,0.379 -0.215,0.522c-0.143,0.143 -0.317,0.214 -0.521,0.214l-5.643,0Z" style="fill:#58636b;fill-rule:nonzero;"/><path d="M123.628,66.094c-3.394,0 -6.134,-1.022 -8.219,-3.067c-2.086,-2.044 -3.128,-4.722 -3.128,-8.035l0,-1.594c0,-0.205 0.071,-0.379 0.214,-0.522c0.143,-0.143 0.317,-0.214 0.522,-0.214l5.581,0c0.205,0 0.378,0.071 0.522,0.214c0.143,0.143 0.214,0.317 0.214,0.522l0,1.226c0,1.595 0.399,2.883 1.196,3.865c0.798,0.981 1.83,1.472 3.098,1.472c1.267,0 2.31,-0.46 3.128,-1.38c0.818,-0.921 1.227,-2.137 1.227,-3.65c0,-1.063 -0.225,-1.983 -0.675,-2.76c-0.45,-0.777 -1.084,-1.513 -1.902,-2.208c-0.817,-0.695 -2.126,-1.697 -3.925,-3.006c-2.045,-1.472 -3.69,-2.78 -4.938,-3.925c-1.247,-1.145 -2.289,-2.525 -3.128,-4.14c-0.838,-1.615 -1.257,-3.486 -1.257,-5.612c0,-3.394 1.022,-6.093 3.067,-8.097c2.044,-2.003 4.743,-3.005 8.096,-3.005c3.394,0 6.134,1.053 8.219,3.159c2.085,2.106 3.128,4.896 3.128,8.372l0,1.472c0,0.204 -0.071,0.378 -0.215,0.521c-0.143,0.143 -0.316,0.215 -0.521,0.215l-5.52,0c-0.205,0 -0.378,-0.072 -0.521,-0.215c-0.144,-0.143 -0.215,-0.317 -0.215,-0.521l0,-1.595c0,-1.594 -0.399,-2.872 -1.196,-3.833c-0.798,-0.961 -1.85,-1.442 -3.159,-1.442c-1.227,0 -2.229,0.44 -3.005,1.319c-0.777,0.879 -1.166,2.096 -1.166,3.65c0,1.472 0.419,2.719 1.258,3.741c0.838,1.022 2.484,2.433 4.937,4.232c2.494,1.84 4.375,3.343 5.643,4.508c1.268,1.166 2.249,2.444 2.944,3.834c0.695,1.39 1.043,3.046 1.043,4.968c0,3.476 -1.043,6.266 -3.128,8.372c-2.086,2.106 -4.825,3.159 -8.219,3.159Z" style="fill:#58636b;fill-rule:nonzero;"/><path d="M141.783,65.603c-0.204,0 -0.378,-0.071 -0.521,-0.214c-0.143,-0.143 -0.215,-0.317 -0.215,-0.522l0,-41.462c0,-0.205 0.072,-0.379 0.215,-0.522c0.143,-0.143 0.317,-0.214 0.521,-0.214l5.643,0c0.204,0 0.378,0.071 0.521,0.214c0.143,0.143 0.215,0.317 0.215,0.522l0,41.462c0,0.205 -0.072,0.379 -0.215,0.522c-0.143,0.143 -0.317,0.214 -0.521,0.214l-5.643,0Z" style="fill:#58636b;fill-rule:nonzero;"/><path d="M166.501,66.094c-3.475,0 -6.266,-1.053 -8.372,-3.159c-2.106,-2.106 -3.159,-4.896 -3.159,-8.372l0,-20.915c0,-3.517 1.053,-6.308 3.159,-8.373c2.106,-2.065 4.897,-3.097 8.372,-3.097c3.517,0 6.338,1.032 8.465,3.097c2.126,2.065 3.189,4.856 3.189,8.373l0,0.736c0,0.204 -0.072,0.388 -0.215,0.552c-0.143,0.163 -0.317,0.245 -0.521,0.245l-5.704,0.245c-0.491,0 -0.736,-0.245 -0.736,-0.736l0,-1.533c0,-1.431 -0.409,-2.597 -1.227,-3.496c-0.818,-0.9 -1.901,-1.35 -3.251,-1.35c-1.308,0 -2.371,0.45 -3.189,1.35c-0.818,0.899 -1.227,2.065 -1.227,3.496l0,21.958c0,1.431 0.409,2.597 1.227,3.496c0.818,0.9 1.881,1.35 3.189,1.35c1.35,0 2.433,-0.45 3.251,-1.35c0.818,-0.899 1.227,-2.065 1.227,-3.496l0,-1.533c0,-0.205 0.071,-0.379 0.214,-0.522c0.144,-0.143 0.317,-0.214 0.522,-0.214l5.704,0.245c0.204,0 0.378,0.072 0.521,0.215c0.143,0.143 0.215,0.317 0.215,0.521l0,0.736c0,3.476 -1.063,6.266 -3.189,8.372c-2.127,2.106 -4.948,3.159 -8.465,3.159Z" style="fill:#58636b;fill-rule:nonzero;"/><path d="M198.518,66.094c-3.475,0 -6.266,-1.053 -8.372,-3.159c-2.106,-2.106 -3.159,-4.896 -3.159,-8.372l0,-20.915c0,-3.517 1.053,-6.308 3.159,-8.373c2.106,-2.065 4.897,-3.097 8.372,-3.097c3.517,0 6.338,1.032 8.465,3.097c2.126,2.065 3.189,4.856 3.189,8.373l0,0.736c0,0.204 -0.071,0.388 -0.215,0.552c-0.143,0.163 -0.316,0.245 -0.521,0.245l-5.704,0.245c-0.491,0 -0.736,-0.245 -0.736,-0.736l0,-1.533c0,-1.431 -0.409,-2.597 -1.227,-3.496c-0.818,-0.9 -1.901,-1.35 -3.251,-1.35c-1.308,0 -2.371,0.45 -3.189,1.35c-0.818,0.899 -1.227,2.065 -1.227,3.496l0,21.958c0,1.431 0.409,2.597 1.227,3.496c0.818,0.9 1.881,1.35 3.189,1.35c1.35,0 2.433,-0.45 3.251,-1.35c0.818,-0.899 1.227,-2.065 1.227,-3.496l0,-1.533c0,-0.205 0.071,-0.379 0.215,-0.522c0.143,-0.143 0.316,-0.214 0.521,-0.214l5.704,0.245c0.205,0 0.378,0.072 0.521,0.215c0.144,0.143 0.215,0.317 0.215,0.521l0,0.736c0,3.476 -1.063,6.266 -3.189,8.372c-2.127,2.106 -4.948,3.159 -8.465,3.159Z" style="fill:#bbbfc3;fill-rule:nonzero;"/><path d="M232.192,23.405c0,-0.205 0.071,-0.379 0.214,-0.522c0.143,-0.143 0.317,-0.214 0.522,-0.214l5.642,0c0.205,0 0.379,0.071 0.522,0.214c0.143,0.143 0.215,0.317 0.215,0.522l0,41.462c0,0.205 -0.072,0.379 -0.215,0.522c-0.143,0.143 -0.317,0.214 -0.522,0.214l-5.642,0c-0.205,0 -0.379,-0.071 -0.522,-0.214c-0.143,-0.143 -0.214,-0.317 -0.214,-0.522l0,-17.358c0,-0.204 -0.103,-0.306 -0.307,-0.306l-7.79,0c-0.204,0 -0.306,0.102 -0.306,0.306l0,17.358c0,0.205 -0.072,0.379 -0.215,0.522c-0.143,0.143 -0.317,0.214 -0.521,0.214l-5.643,0c-0.205,0 -0.379,-0.071 -0.522,-0.214c-0.143,-0.143 -0.214,-0.317 -0.214,-0.522l0,-41.462c0,-0.205 0.071,-0.379 0.214,-0.522c0.143,-0.143 0.317,-0.214 0.522,-0.214l5.643,0c0.204,0 0.378,0.071 0.521,0.214c0.143,0.143 0.215,0.317 0.215,0.522l0,17.296c0,0.205 0.102,0.307 0.306,0.307l7.79,0c0.204,0 0.307,-0.102 0.307,-0.307l0,-17.296Z" style="fill:#bbbfc3;fill-rule:nonzero;"/><path d="M264.27,65.603c-0.491,0 -0.756,-0.224 -0.797,-0.674l-1.166,-6.44c0,-0.205 -0.122,-0.307 -0.368,-0.307l-8.955,0c-0.245,0 -0.368,0.102 -0.368,0.307l-1.165,6.44c-0.041,0.45 -0.307,0.674 -0.797,0.674l-5.582,0c-0.572,0 -0.797,-0.265 -0.675,-0.797l9.078,-41.463c0.082,-0.45 0.348,-0.674 0.797,-0.674l6.502,0c0.45,0 0.716,0.224 0.797,0.674l9.078,41.463l0,0.245c0,0.368 -0.225,0.552 -0.675,0.552l-5.704,0Zm-10.55,-13.309c-0.041,0.204 0.062,0.306 0.307,0.306l6.808,0c0.246,0 0.348,-0.102 0.307,-0.306l-3.557,-19.382c-0.041,-0.123 -0.103,-0.184 -0.185,-0.184c-0.081,0 -0.143,0.061 -0.184,0.184l-3.496,19.382Z" style="fill:#bbbfc3;fill-rule:nonzero;"/><path d="M276.476,65.603c-0.205,0 -0.378,-0.071 -0.522,-0.214c-0.143,-0.143 -0.214,-0.317 -0.214,-0.522l0,-41.462c0,-0.205 0.071,-0.379 0.214,-0.522c0.144,-0.143 0.317,-0.214 0.522,-0.214l5.643,0c0.204,0 0.378,0.071 0.521,0.214c0.143,0.143 0.215,0.317 0.215,0.522l0,35.758c0,0.205 0.102,0.307 0.306,0.307l13.249,0c0.204,0 0.378,0.071 0.521,0.215c0.143,0.143 0.215,0.316 0.215,0.521l0,4.661c0,0.205 -0.072,0.379 -0.215,0.522c-0.143,0.143 -0.317,0.214 -0.521,0.214l-19.934,0Z" style="fill:#bbbfc3;fill-rule:nonzero;"/><path d="M302.85,65.603c-0.204,0 -0.378,-0.071 -0.521,-0.214c-0.143,-0.143 -0.215,-0.317 -0.215,-0.522l0,-41.462c0,-0.205 0.072,-0.379 0.215,-0.522c0.143,-0.143 0.317,-0.214 0.521,-0.214l5.643,0c0.204,0 0.378,0.071 0.521,0.214c0.143,0.143 0.215,0.317 0.215,0.522l0,35.758c0,0.205 0.102,0.307 0.307,0.307l13.248,0c0.205,0 0.378,0.071 0.522,0.215c0.143,0.143 0.214,0.316 0.214,0.521l0,4.661c0,0.205 -0.071,0.379 -0.214,0.522c-0.144,0.143 -0.317,0.214 -0.522,0.214l-19.934,0Z" style="fill:#bbbfc3;fill-rule:nonzero;"/><path d="M349.894,28.066c0,0.205 -0.071,0.378 -0.214,0.521c-0.143,0.144 -0.317,0.215 -0.522,0.215l-13.248,0c-0.204,0 -0.307,0.102 -0.307,0.307l0,11.592c0,0.205 0.103,0.307 0.307,0.307l7.851,0c0.204,0 0.378,0.071 0.521,0.215c0.143,0.143 0.215,0.316 0.215,0.521l0,4.723c0,0.204 -0.072,0.378 -0.215,0.521c-0.143,0.143 -0.317,0.215 -0.521,0.215l-7.851,0c-0.204,0 -0.307,0.102 -0.307,0.306l0,11.654c0,0.205 0.103,0.307 0.307,0.307l13.248,0c0.205,0 0.379,0.071 0.522,0.215c0.143,0.143 0.214,0.316 0.214,0.521l0,4.661c0,0.205 -0.071,0.379 -0.214,0.522c-0.143,0.143 -0.317,0.214 -0.522,0.214l-19.934,0c-0.204,0 -0.378,-0.071 -0.521,-0.214c-0.143,-0.143 -0.215,-0.317 -0.215,-0.522l0,-41.462c0,-0.205 0.072,-0.379 0.215,-0.522c0.143,-0.143 0.317,-0.214 0.521,-0.214l19.934,0c0.205,0 0.379,0.071 0.522,0.214c0.143,0.143 0.214,0.317 0.214,0.522l0,4.661Z" style="fill:#bbbfc3;fill-rule:nonzero;"/><path d="M373.509,23.405c0,-0.205 0.071,-0.379 0.214,-0.522c0.143,-0.143 0.317,-0.214 0.522,-0.214l5.581,0c0.205,0 0.378,0.071 0.522,0.214c0.143,0.143 0.214,0.317 0.214,0.522l0,41.462c0,0.205 -0.071,0.379 -0.214,0.522c-0.144,0.143 -0.317,0.214 -0.522,0.214l-6.44,0c-0.409,0 -0.675,-0.204 -0.797,-0.613l-9.139,-26.006c-0.041,-0.123 -0.113,-0.174 -0.215,-0.154c-0.102,0.021 -0.153,0.092 -0.153,0.215l0.061,25.822c0,0.205 -0.072,0.379 -0.215,0.522c-0.143,0.143 -0.317,0.214 -0.521,0.214l-5.582,0c-0.204,0 -0.378,-0.071 -0.521,-0.214c-0.143,-0.143 -0.215,-0.317 -0.215,-0.522l0,-41.462c0,-0.205 0.072,-0.379 0.215,-0.522c0.143,-0.143 0.317,-0.214 0.521,-0.214l6.318,0c0.409,0 0.675,0.204 0.797,0.613l9.201,25.822c0.041,0.123 0.112,0.174 0.214,0.154c0.103,-0.021 0.154,-0.092 0.154,-0.215l0,-25.638Z" style="fill:#bbbfc3;fill-rule:nonzero;"/><path d="M398.902,66.094c-3.476,0 -6.267,-1.012 -8.373,-3.036c-2.106,-2.024 -3.159,-4.713 -3.159,-8.066l0,-21.712c0,-3.353 1.053,-6.042 3.159,-8.066c2.106,-2.024 4.897,-3.036 8.373,-3.036c3.475,0 6.286,1.012 8.433,3.036c2.147,2.024 3.22,4.733 3.22,8.127l0,2.392c0,0.204 -0.071,0.378 -0.214,0.521c-0.143,0.144 -0.317,0.215 -0.522,0.215l-5.643,0c-0.204,0 -0.378,-0.071 -0.521,-0.215c-0.143,-0.143 -0.215,-0.317 -0.215,-0.521l0,-2.515c0,-1.472 -0.419,-2.658 -1.257,-3.557c-0.838,-0.9 -1.932,-1.35 -3.281,-1.35c-1.35,0 -2.433,0.45 -3.251,1.35c-0.818,0.899 -1.227,2.085 -1.227,3.557l0,21.836c0,1.472 0.409,2.658 1.227,3.557c0.818,0.9 1.901,1.35 3.251,1.35c1.349,0 2.443,-0.45 3.281,-1.35c0.838,-0.899 1.257,-2.085 1.257,-3.557l0,-5.888c0,-0.205 -0.102,-0.307 -0.306,-0.307l-3.742,0c-0.204,0 -0.378,-0.072 -0.521,-0.215c-0.143,-0.143 -0.215,-0.317 -0.215,-0.521l0,-4.478c0,-0.204 0.072,-0.378 0.215,-0.521c0.143,-0.143 0.317,-0.215 0.521,-0.215l10.427,0c0.205,0 0.379,0.072 0.522,0.215c0.143,0.143 0.214,0.317 0.214,0.521l0,11.347c0,3.353 -1.073,6.042 -3.22,8.066c-2.147,2.024 -4.958,3.036 -8.433,3.036Z" style="fill:#bbbfc3;fill-rule:nonzero;"/><path d="M438.77,28.066c0,0.205 -0.072,0.378 -0.215,0.521c-0.143,0.144 -0.317,0.215 -0.521,0.215l-13.249,0c-0.204,0 -0.307,0.102 -0.307,0.307l0,11.592c0,0.205 0.103,0.307 0.307,0.307l7.851,0c0.205,0 0.378,0.071 0.521,0.215c0.144,0.143 0.215,0.316 0.215,0.521l0,4.723c0,0.204 -0.071,0.378 -0.215,0.521c-0.143,0.143 -0.316,0.215 -0.521,0.215l-7.851,0c-0.204,0 -0.307,0.102 -0.307,0.306l0,11.654c0,0.205 0.103,0.307 0.307,0.307l13.249,0c0.204,0 0.378,0.071 0.521,0.215c0.143,0.143 0.215,0.316 0.215,0.521l0,4.661c0,0.205 -0.072,0.379 -0.215,0.522c-0.143,0.143 -0.317,0.214 -0.521,0.214l-19.934,0c-0.205,0 -0.379,-0.071 -0.522,-0.214c-0.143,-0.143 -0.214,-0.317 -0.214,-0.522l0,-41.462c0,-0.205 0.071,-0.379 0.214,-0.522c0.143,-0.143 0.317,-0.214 0.522,-0.214l19.934,0c0.204,0 0.378,0.071 0.521,0.214c0.143,0.143 0.215,0.317 0.215,0.522l0,4.661Z" style="fill:#bbbfc3;fill-rule:nonzero;"/></g></svg>
